<svg xmlns="http://www.w3.org/2000/svg" width="575" height="383" fill="none">
    <rect width="574.23" height="381.865" x=".5" y=".5" fill="url(#a)" rx="25" />
    <rect width="471.463" height="353.756" x="52.531" y="14.803" fill="#2A2A2A" opacity=".1" rx="5" />
    <rect width="536" height="346" x="19.53" y="17.803" fill="#E8EAF6" rx="8" />
    <mask id="b" width="537" height="347" x="19" y="17" maskUnits="userSpaceOnUse"
        style="mask-type:luminance">
        <rect width="536" height="346" x="19.53" y="17.803" fill="#fff" rx="8" />
    </mask>
    <g mask="url(#b)">
        <path fill="#5267DF" d="M16 18h547v59H16z" />
        <circle cx="58" cy="48" r="16" fill="#fff" opacity=".245" />
        <circle cx="519" cy="48" r="16" fill="#fff" opacity=".104" />
        <rect width="120" height="6" x="89" y="38" fill="#fff" opacity=".75" rx="3" />
        <rect width="64" height="6" x="89" y="52" fill="#fff" opacity=".25" rx="3" />
        <rect width="261" height="316" x="76.531" y="110.803" fill="#fff" rx="8" />
        <rect width="128" height="316" x="371.531" y="110.803" fill="#fff" rx="8" />
        <rect width="120" height="6" x="155" y="149" fill="#242A45" opacity=".5" rx="3" />
    </g>
    <circle cx="124" cy="159" r="16" fill="#F98E5D" />
    <rect width="88" height="6" x="392" y="133" fill="#242A45" opacity=".25" rx="3" />
    <rect width="88" height="6" x="392" y="153" fill="#242A45" opacity=".25" rx="3" />
    <rect width="88" height="6" x="392" y="173" fill="#242A45" opacity=".25" rx="3" />
    <rect width="88" height="6" x="392" y="193" fill="#242A45" opacity=".25" rx="3" />
    <rect width="88" height="6" x="392" y="227" fill="#242A45" opacity=".25" rx="3" />
    <rect width="88" height="6" x="392" y="247" fill="#242A45" opacity=".25" rx="3" />
    <rect width="88" height="6" x="392" y="267" fill="#242A45" opacity=".25" rx="3" />
    <rect width="64" height="6" x="155" y="163" fill="#242A45" opacity=".25" rx="3" />
    <circle cx="124" cy="215" r="16" fill="#6AC6D6" />
    <rect width="120" height="6" x="155" y="205" fill="#242A45" opacity=".5" rx="3" />
    <rect width="64" height="6" x="155" y="219" fill="#242A45" opacity=".25" rx="3" />
    <circle cx="124" cy="271" r="16" fill="#A47ED4" />
    <rect width="120" height="6" x="155" y="261" fill="#242A45" opacity=".5" rx="3" />
    <rect width="64" height="6" x="155" y="275" fill="#242A45" opacity=".25" rx="3" />
    <circle cx="124" cy="327" r="16" fill="#EC7878" />
    <rect width="120" height="6" x="155" y="317" fill="#242A45" opacity=".5" rx="3" />
    <rect width="64" height="6" x="155" y="331" fill="#242A45" opacity=".25" rx="3" />
    <defs>
        <linearGradient id="a" x1="846.042" x2="506.325" y1="194.406" y2="-316.444"
            gradientUnits="userSpaceOnUse">
            <stop stop-color="#151515" />
            <stop offset="1" stop-color="#3D3D3D" />
        </linearGradient>
    </defs>
</svg>